<svg width="77" height="59" viewBox="0 0 77 59" fill="none" xmlns="http://www.w3.org/2000/svg">
<path d="M6.19524 57.4791C5.19889 57.6936 4.30292 57.5711 3.50732 57.1118C2.67143 56.6306 2.14206 55.8724 1.91921 54.8372C1.70681 53.8506 1.81569 52.7617 2.24583 51.5707C2.72376 50.2473 3.41959 49.4872 4.33332 49.2905C4.80962 49.188 5.36589 49.1852 6.0021 49.2822C6.80745 49.4089 7.25459 49.6787 7.34353 50.0919C7.38328 50.2766 7.3581 50.4549 7.26799 50.6269C7.17682 50.794 7.04132 50.8969 6.8615 50.9356C6.72055 50.9659 6.58772 50.9513 6.46301 50.8917C6.34211 50.8262 6.22416 50.7626 6.10917 50.7009C5.77324 50.5342 5.27964 50.5209 4.62837 50.6611C4.13262 50.7678 3.73695 51.3158 3.44134 52.305C3.17378 53.2118 3.10383 53.9618 3.23147 54.5547C3.36958 55.1963 3.6971 55.6546 4.21404 55.9299C4.69659 56.1871 5.25864 56.2466 5.90019 56.1085C6.19181 56.0457 6.48612 55.901 6.78314 55.6743L7.53152 55.0403C7.66059 54.9311 7.75671 54.8697 7.8199 54.8561C7.99973 54.8174 8.17095 54.8568 8.33356 54.9744C8.49513 55.0871 8.59579 55.2358 8.63555 55.4205C8.71193 55.7753 8.41145 56.1985 7.73412 56.6901C7.14076 57.123 6.6278 57.386 6.19524 57.4791ZM11.0888 49.9493L11.7594 53.5961C11.8421 53.9801 11.944 54.5481 12.0652 55.3001C12.1212 55.7966 11.9354 56.0908 11.5077 56.1829C11.0314 56.2854 10.7399 56.0888 10.6332 55.5931C10.5066 55.005 10.3434 54.1171 10.1437 52.9294C9.94289 51.7369 9.7792 50.8465 9.6526 50.2585C9.48729 49.4905 9.31059 48.6106 9.1225 47.6188C8.93336 46.6221 8.75613 45.7397 8.59082 44.9718C8.4862 44.4858 8.67204 44.1915 9.14834 44.089C9.62951 43.9854 9.9224 44.1766 10.027 44.6626C10.1923 45.4306 10.3696 46.3129 10.5587 47.3096C10.7468 48.3015 10.9235 49.1814 11.0888 49.9493ZM13.9734 45.6668C13.7401 45.717 13.5206 45.6778 13.3149 45.5492C13.1092 45.4205 12.9813 45.2396 12.9311 45.0063C12.8809 44.773 12.923 44.5554 13.0575 44.3535C13.1921 44.1517 13.376 44.0256 13.6093 43.9754C13.8426 43.9252 14.0596 43.9649 14.2605 44.0946C14.4661 44.2232 14.5941 44.4042 14.6443 44.6375C14.6945 44.8708 14.6524 45.0883 14.5178 45.2902C14.3882 45.491 14.2067 45.6165 13.9734 45.6668ZM15.5758 51.5159C15.6386 51.8075 15.74 52.2434 15.8802 52.8235C16.0241 53.3977 16.1275 53.8306 16.1903 54.1222C16.2363 54.336 16.2083 54.5251 16.1064 54.6895C16.0045 54.8538 15.8466 54.959 15.6327 55.005C15.4237 55.05 15.2366 55.0191 15.0712 54.9123C14.9107 54.8045 14.8074 54.6436 14.7613 54.4298C14.6986 54.1382 14.5952 53.7053 14.4513 53.1311C14.3111 52.551 14.2097 52.1152 14.1469 51.8235C14.0485 51.3667 13.9504 50.7928 13.8526 50.1019C13.7536 49.4061 13.655 48.8298 13.5567 48.373C13.5096 48.1542 13.537 47.9627 13.6389 47.7984C13.7457 47.633 13.9036 47.5278 14.1126 47.4828C14.3216 47.4378 14.5063 47.4693 14.6669 47.5771C14.8323 47.6839 14.9385 47.8466 14.9856 48.0654C15.0839 48.5222 15.1826 49.0985 15.2815 49.7943C15.3793 50.4852 15.4775 51.0591 15.5758 51.5159ZM22.1466 54.0452C21.1502 54.2597 20.2543 54.1373 19.4587 53.678C18.6228 53.1968 18.0934 52.4386 17.8706 51.4034C17.6582 50.4167 17.767 49.3279 18.1972 48.1368C18.6751 46.8134 19.3709 46.0534 20.2847 45.8567C20.761 45.7541 21.3172 45.7514 21.9535 45.8483C22.7588 45.975 23.2059 46.2449 23.2949 46.658C23.3346 46.8427 23.3095 47.021 23.2193 47.193C23.1282 47.3601 22.9927 47.463 22.8128 47.5017C22.6719 47.5321 22.5391 47.5174 22.4144 47.4578C22.2935 47.3923 22.1755 47.3287 22.0605 47.267C21.7246 47.1003 21.231 47.0871 20.5797 47.2273C20.084 47.334 19.6883 47.8819 19.3927 48.8711C19.1251 49.778 19.0552 50.5279 19.1828 51.1209C19.3209 51.7624 19.6485 52.2208 20.1654 52.496C20.6479 52.7532 21.21 52.8127 21.8515 52.6746C22.1432 52.6119 22.4375 52.4671 22.7345 52.2405L23.4829 51.6064C23.6119 51.4973 23.7081 51.4359 23.7712 51.4223C23.9511 51.3836 24.1223 51.423 24.2849 51.5406C24.4465 51.6532 24.5471 51.8019 24.5869 51.9866C24.6633 52.3414 24.3628 52.7646 23.6855 53.2563C23.0921 53.6891 22.5791 53.9521 22.1466 54.0452ZM32.5592 51.6359C32.2919 51.6934 32.055 51.597 31.8485 51.3464C31.4901 50.91 30.9835 50.4113 30.3288 49.8504L28.6602 48.3712C28.4264 48.6555 28.0565 49.0632 27.5504 49.5942C27.6591 50.359 27.7903 51.0987 27.9441 51.8132C27.9912 52.0319 27.9613 52.2239 27.8546 52.3893C27.7526 52.5536 27.5972 52.6583 27.3882 52.7033C26.8973 52.809 26.5807 52.5313 26.4384 51.8703C26.3516 51.4669 26.2486 50.8585 26.1294 50.045C26.014 49.2257 25.9129 48.6143 25.8261 48.2109C25.6671 47.4721 25.4952 46.6268 25.3107 45.6748C25.1299 44.717 24.961 43.8736 24.8041 43.1445C24.757 42.9258 24.6894 42.6708 24.6013 42.3796C24.518 42.0873 24.4529 41.8318 24.4058 41.6131C24.3587 41.3944 24.3861 41.2029 24.4881 41.0385C24.5948 40.8731 24.7527 40.768 24.9617 40.723C25.1707 40.678 25.3555 40.7094 25.516 40.8172C25.6814 40.924 25.7876 41.0868 25.8347 41.3055C25.8828 41.5291 25.952 41.7913 26.0422 42.0923C26.1314 42.3884 26.2 42.6482 26.2482 42.8718L26.7025 45.2303C26.8602 46.0812 27.035 46.9285 27.2268 47.7721C27.7789 47.1243 28.2964 46.4332 28.779 45.6987L30.0266 43.6985C30.1515 43.4987 30.3062 43.3789 30.4909 43.3392C30.6804 43.2984 30.8668 43.3371 31.0499 43.4553C31.2378 43.5725 31.3533 43.7307 31.3962 43.93C31.4317 44.0953 31.3963 44.2733 31.2899 44.464C30.8427 45.2926 30.2681 46.202 29.5659 47.1922L31.6213 49.0154C32.5836 49.8711 33.0977 50.452 33.1636 50.7582C33.2054 50.9526 33.1638 51.137 33.0386 51.3115C32.9182 51.4849 32.7584 51.593 32.5592 51.6359ZM45.1462 49.0865C44.8011 49.1608 44.5353 49.0247 44.3489 48.6784C44.1513 48.3039 43.9274 47.7596 43.677 47.0456C43.4378 46.3597 43.2696 45.7908 43.1723 45.3388C43.1451 45.2124 43.1086 45.0194 43.0629 44.7597C43.022 44.499 42.988 44.3054 42.9608 44.179C42.7641 43.2653 42.4373 42.8576 41.9804 42.956C41.3632 43.0888 40.8717 43.4871 40.506 44.1506C40.3198 44.4907 40.0973 45.1107 39.8384 46.0107C40.2371 47.8624 40.3952 48.9751 40.313 49.3488C40.2417 49.6795 40.0628 49.8757 39.776 49.9374C39.5767 49.9803 39.3871 49.9499 39.2071 49.8463C39.0272 49.7426 38.9163 49.5936 38.8744 49.3992C38.8598 49.3311 38.8586 49.2195 38.871 49.0643C38.8837 48.9344 38.8341 48.5738 38.722 47.9826L38.5116 46.8989L37.38 41.5358C37.2843 40.9258 37.2139 40.5163 37.169 40.3073C37.1156 40.0594 37.0411 39.8314 36.9454 39.6231C36.8535 39.409 36.7819 39.1828 36.7307 38.9447C36.6867 38.7405 36.7211 38.5577 36.8338 38.3961C36.9455 38.2297 37.1034 38.1245 37.3075 38.0806C37.706 37.9948 37.9854 38.1584 38.1455 38.5714C38.3247 39.0261 38.4551 39.443 38.5368 39.8221C38.6466 40.3325 38.7442 40.8683 38.8294 41.4297C38.9143 41.9658 39.0167 42.5006 39.1367 43.0342L39.2821 43.6741C39.5655 43.0537 39.905 42.5636 40.3005 42.2039C40.6998 41.8382 41.1546 41.6005 41.665 41.4906C42.4718 41.3169 43.0823 41.4601 43.4967 41.9201C43.79 42.2435 44.0455 42.8394 44.263 43.708L44.621 45.0879L45.0933 46.5729C45.2837 47.1269 45.4741 47.6097 45.6644 48.0214C45.7017 48.0998 45.7266 48.1682 45.7391 48.2265C45.782 48.4258 45.7447 48.6067 45.6271 48.7694C45.5106 48.9368 45.3503 49.0425 45.1462 49.0865ZM51.0554 47.6923C49.957 47.9288 49.0085 47.8457 48.2098 47.4429C47.3354 46.9955 46.7805 46.225 46.5451 45.1314C46.2731 43.8678 46.3512 42.7423 46.7794 41.7551C47.2444 40.6786 48.0334 40.0205 49.1464 39.7809C49.9532 39.6072 50.641 39.6016 51.2099 39.7639C51.9091 39.9643 52.3335 40.412 52.4831 41.107C52.5877 41.593 52.4083 42.0944 51.9449 42.6112C51.7396 42.8384 51.283 43.2215 50.5751 43.7604L48.0743 45.6795C48.4333 46.0243 48.8365 46.2553 49.2838 46.3726C49.736 46.4889 50.2319 46.4889 50.7714 46.3728C51.1067 46.3006 51.4868 46.1527 51.9116 45.929C52.4506 45.6451 52.775 45.3566 52.8848 45.0635C52.9935 44.7654 53.1427 44.596 53.3322 44.5552C53.5023 44.5186 53.6671 44.5518 53.8266 44.6548C53.9899 44.7518 54.0898 44.8854 54.1265 45.0555C54.2426 45.595 53.9075 46.1528 53.1212 46.7289C52.4488 47.2195 51.7602 47.5406 51.0554 47.6923ZM49.4289 41.0932C48.8359 41.2208 48.3923 41.5579 48.098 42.1044C47.8027 42.646 47.6572 43.3994 47.6616 44.3647L49.6706 42.8185C50.4582 42.2014 51.0052 41.6947 51.3114 41.2982C50.8097 40.9993 50.1822 40.931 49.4289 41.0932ZM60.2706 39.7204C60.3673 40.3353 60.1897 40.6914 59.7377 40.7887C59.3197 40.8787 59.0589 40.6831 58.9553 40.2019C58.9355 40.1096 58.8916 39.941 58.8236 39.6963L58.6699 39.0886C57.9219 39.3463 57.3536 39.6949 56.9651 40.1345C56.6006 40.5435 56.3434 41.0973 56.1938 41.7957L57.0684 45.7877C57.174 46.2786 56.9863 46.5758 56.5051 46.6794C56.0774 46.7714 55.8107 46.572 55.7051 46.0812L54.6033 40.9633C54.5688 40.8029 54.5219 40.5613 54.4626 40.2384C54.4081 39.9145 54.3636 39.6724 54.3291 39.512C54.2234 39.0211 54.3844 38.7296 54.8121 38.6375C55.2884 38.535 55.6158 38.8866 55.7944 39.6924C56.534 38.5923 57.4724 37.9199 58.6097 37.6751C59.0034 37.5903 59.3294 37.6753 59.5876 37.9299C59.8458 38.1845 60.0393 38.6107 60.168 39.2085C60.2224 39.4613 60.2566 39.6319 60.2706 39.7204ZM66.409 44.3872C65.3105 44.6236 64.362 44.5405 63.5633 44.1378C62.6889 43.6903 62.134 42.9198 61.8986 41.8263C61.6266 40.5626 61.7047 39.4371 62.133 38.4499C62.5979 37.3734 63.3869 36.7154 64.4999 36.4758C65.3067 36.3021 65.9946 36.2964 66.5635 36.4587C67.2626 36.6591 67.687 37.1068 67.8367 37.8018C67.9413 38.2878 67.7619 38.7892 67.2985 39.306C67.0931 39.5333 66.6365 39.9164 65.9287 40.4552L63.4278 42.3743C63.7868 42.7191 64.19 42.9502 64.6374 43.0675C65.0896 43.1837 65.5854 43.1838 66.1249 43.0676C66.4603 42.9954 66.8403 42.8475 67.2651 42.6238C67.8041 42.34 68.1285 42.0515 68.2383 41.7583C68.3471 41.4603 68.4962 41.2909 68.6858 41.2501C68.8559 41.2134 69.0207 41.2466 69.1801 41.3496C69.3434 41.4467 69.4434 41.5803 69.48 41.7504C69.5961 42.2899 69.2611 42.8477 68.4748 43.4238C67.8023 43.9143 67.1137 44.2355 66.409 44.3872ZM64.7824 37.788C64.1894 37.9157 63.7458 38.2527 63.4515 38.7992C63.1562 39.3408 63.0107 40.0943 63.0151 41.0596L65.0241 39.5134C65.8118 38.8963 66.3587 38.3895 66.6649 37.993C66.1632 37.6942 65.5357 37.6259 64.7824 37.788ZM70.1325 31.6703L71.8792 39.7845C71.9724 40.2171 71.8026 40.4799 71.3701 40.573C70.9375 40.6662 70.6747 40.4964 70.5816 40.0639C70.5387 39.8646 70.4676 39.5697 70.3682 39.1792C70.2727 38.7827 70.204 38.4873 70.1622 38.2929C70.0105 37.5881 69.7883 36.5324 69.4956 35.1257C69.2068 33.7131 68.9865 32.6544 68.8348 31.9497C68.7417 31.5171 68.9114 31.2543 69.344 31.1612C69.7765 31.068 70.0394 31.2378 70.1325 31.6703ZM72.4829 42.5533C72.5206 42.7283 72.4825 42.8941 72.3688 43.0508C72.261 43.2113 72.1196 43.3104 71.9446 43.3481C71.7502 43.3899 71.5286 43.3054 71.2797 43.0945C71.0389 42.8972 70.8971 42.6989 70.8542 42.4996C70.8165 42.3247 70.8521 42.1593 70.961 42.0037C71.0747 41.847 71.2215 41.7493 71.4014 41.7105C71.5909 41.6697 71.8125 41.7543 72.0662 41.9641C72.3022 42.1625 72.4411 42.3589 72.4829 42.5533Z" fill="#100022"/>
<path d="M41.0487 31.5802C47.2253 13.5308 75.5809 9.81899 75.5809 9.81899C75.5809 9.81899 70.5247 3.66904 61.9188 1.45711" stroke="#100022" stroke-width="1.50552" stroke-miterlimit="10" stroke-linecap="round" stroke-linejoin="round"/>
<path d="M75.5805 9.81911C75.5805 9.81911 76.9755 14.2483 69.6739 19.4597" stroke="#100022" stroke-width="1.50552" stroke-miterlimit="10" stroke-linecap="round" stroke-linejoin="round"/>
</svg>
