<svg width="48" height="36" viewBox="0 0 48 36" fill="none" xmlns="http://www.w3.org/2000/svg">
<g clip-path="url(#clip0_13_75)">
<path d="M46.0333 15.2369C44.0592 8.41997 40.3383 3.05414 40.3383 3.05414C40.3383 3.05414 38.3894 1.98266 35.5292 1.15585C32.6691 0.329037 30.4669 0 30.4669 0C30.4669 0 29.6654 1.18116 29.1761 2.42137C29.1592 2.45512 29.1508 2.49731 29.134 2.53105C27.5562 2.2442 25.9026 2.09234 24.1983 2.09234H23.5908C21.8865 2.09234 20.2328 2.2442 18.6551 2.53105C18.6382 2.49731 18.6298 2.45512 18.6129 2.42137C18.1235 1.18116 17.3221 0 17.3221 0C17.3221 0 15.12 0.329037 12.2599 1.15585C9.39972 1.98266 7.45068 3.05414 7.45068 3.05414C7.45068 3.05414 3.73002 8.41997 1.75567 15.2369C-0.227038 22.0623 0.540818 29.9339 0.540818 29.9339C0.540818 29.9339 2.3547 31.7225 6.0756 33.4268C9.78782 35.131 12.4118 36 12.4118 36C12.4118 36 12.918 35.4768 13.8461 34.0004C14.2173 33.4014 14.5633 32.8277 14.85 32.3552C12.1333 31.5115 9.77938 30.381 7.9148 29.3179C7.95698 29.2589 8.68248 28.6767 9.00318 28.4321C12.6058 30.381 17.4065 32.2118 23.3124 32.2118C23.5065 32.2118 23.7005 32.2118 23.8945 32.2034C24.0885 32.2118 24.2827 32.2118 24.4767 32.2118C30.3827 32.2118 35.1834 30.381 38.786 28.4321C39.1066 28.6767 39.8322 29.2589 39.8743 29.3179C38.0097 30.381 35.6558 31.5115 32.939 32.3552C33.2259 32.8277 33.5718 33.4014 33.9431 34.0004C34.8712 35.4768 35.3775 36 35.3775 36C35.3775 36 38.0013 35.131 41.7137 33.4268C45.4343 31.7225 47.2483 29.9339 47.2483 29.9339C47.2483 29.9339 48.0161 22.0623 46.0333 15.2369ZM16.1662 24.644C13.7364 24.644 11.7621 22.4589 11.7621 19.7506C11.7621 17.0424 13.7364 14.8573 16.1662 14.8573C18.596 14.8573 20.5704 17.0424 20.5704 19.7506C20.5704 22.4589 18.596 24.644 16.1662 24.644ZM31.6228 24.644C29.1929 24.644 27.2187 22.4589 27.2187 19.7506C27.2187 17.0424 29.1929 14.8573 31.6228 14.8573C34.0527 14.8573 36.027 17.0424 36.027 19.7506C36.027 22.4589 34.0527 24.644 31.6228 24.644Z" fill="url(#paint0_linear_13_75)" fill-opacity="0.8"/>
</g>
<defs>
<linearGradient id="paint0_linear_13_75" x1="23.8945" y1="0" x2="23.8945" y2="36" gradientUnits="userSpaceOnUse">
<stop stop-color="#5865F2"/>
<stop offset="1" stop-color="#5865F2" stop-opacity="0.807292"/>
</linearGradient>
<clipPath id="clip0_13_75">
<rect width="47" height="36" fill="white" transform="translate(0.394531)"/>
</clipPath>
</defs>
</svg>
