<svg width="117" height="81" viewBox="0 0 117 81" fill="none" xmlns="http://www.w3.org/2000/svg">
<path d="M24.8808 27.6045C24.9007 29.1615 24.5233 30.4912 23.7486 31.5937C22.9777 32.6903 21.9362 33.3799 20.6239 33.6624C19.4283 33.9197 18.4599 33.7798 17.7187 33.2427C16.9765 32.7007 16.4616 31.7614 16.1739 30.4248C15.9029 29.166 15.9205 27.8069 16.2268 26.3476C16.5369 24.8823 17.0701 23.6385 17.8265 22.6163C18.3303 21.9331 18.9298 21.5168 19.6248 21.3671C20.0671 21.2719 20.6817 21.2922 21.4687 21.4279C22.4286 21.5874 22.954 21.8786 23.045 22.3015C23.0879 22.5007 23.0532 22.6938 22.9409 22.8807C22.8286 23.0676 22.6703 23.1831 22.4662 23.227C22.3593 23.25 22.1955 23.2217 21.975 23.1421C21.1341 22.8501 20.4584 22.7591 19.9481 22.869C19.5836 22.9474 19.2429 23.2191 18.9259 23.684C18.7675 23.9165 18.555 24.3233 18.2885 24.9044C17.486 26.6334 17.272 28.3678 17.6465 30.1078C17.8432 31.0215 18.1217 31.6303 18.4821 31.9341C18.8741 32.2667 19.4808 32.3446 20.3022 32.1678C21.1722 31.9805 21.8688 31.5432 22.3921 30.8559C22.9422 30.1273 23.2342 29.1923 23.2682 28.0509C21.9365 28.4087 20.8382 28.9172 19.9732 29.5764C19.8729 29.6539 19.7693 29.7042 19.6624 29.7272C19.4485 29.7733 19.2533 29.7288 19.0768 29.5939C18.9131 29.4715 18.8099 29.3107 18.767 29.1114C18.7094 28.8441 18.7922 28.6025 19.0152 28.3867C19.927 27.5191 21.6683 26.8086 24.2394 26.2551C24.4484 26.2101 24.6385 26.2429 24.8098 26.3535C24.9811 26.4641 25.0898 26.6264 25.1358 26.8402C25.2038 27.1561 25.1188 27.4109 24.8808 27.6045ZM30.3409 31.4943C29.5243 31.6701 28.7572 31.5199 28.0393 31.0439C27.2388 30.5144 26.6997 29.6871 26.4219 28.562C26.1562 27.4698 26.2251 26.443 26.6283 25.4815C27.0964 24.3484 27.9379 23.651 29.153 23.3895C30.125 23.1802 30.9571 23.4664 31.6492 24.2481C32.2026 24.8816 32.5808 25.7054 32.7838 26.7195C33.0015 27.8016 32.9179 28.7833 32.5329 29.6646C32.0971 30.6636 31.3664 31.2735 30.3409 31.4943ZM29.3768 24.8898C28.6613 25.0388 28.178 25.4988 27.927 26.2699C27.7293 26.8871 27.7063 27.5481 27.8581 28.2528C28.0098 28.9575 28.32 29.4654 28.7887 29.7764C29.1796 30.033 29.5913 30.1148 30.0238 30.0216C30.5293 29.9128 30.9245 29.6345 31.2095 29.1867C31.5348 28.6895 31.6347 28.0907 31.5094 27.3905C31.1726 25.4949 30.4617 24.6614 29.3768 24.8898ZM38.1999 29.8025C37.3834 29.9783 36.6162 29.8281 35.8984 29.352C35.0978 28.8226 34.5587 27.9953 34.2809 26.8702C34.0153 25.778 34.0841 24.7512 34.4874 23.7897C34.9554 22.6566 35.797 21.9592 37.012 21.6977C37.9841 21.4884 38.8161 21.7746 39.5082 22.5563C40.0616 23.1898 40.4398 24.0136 40.6429 25.0277C40.8605 26.1098 40.7769 27.0915 40.392 27.9728C39.9561 28.9718 39.2254 29.5817 38.1999 29.8025ZM37.2358 23.198C36.5203 23.347 36.0371 23.807 35.7861 24.5781C35.5884 25.1953 35.5654 25.8563 35.7171 26.561C35.8688 27.2657 36.179 27.7736 36.6477 28.0846C37.0386 28.3412 37.4503 28.423 37.8829 28.3298C38.3883 28.221 38.7836 27.9427 39.0686 27.4948C39.3938 26.9976 39.4938 26.3989 39.3685 25.6987C39.0316 23.8031 38.3207 22.9696 37.2358 23.198ZM48.5611 20.3862C48.6566 21.1133 48.7812 21.834 48.935 22.5484C49.2834 24.1669 49.6219 25.373 49.9504 26.1669C49.9748 26.2328 49.9917 26.2877 50.0011 26.3314C50.0429 26.5258 50.0094 26.7008 49.9005 26.8565C49.7917 27.0122 49.6473 27.1094 49.4675 27.1481C49.1661 27.2129 48.8979 27.0418 48.6628 26.6347C48.3683 26.9677 48.0456 27.2406 47.6948 27.4534C47.3488 27.6652 46.9717 27.815 46.5634 27.9029C45.5573 28.1195 44.6516 27.9636 43.8462 27.4351C43.0183 26.8963 42.4887 26.0899 42.2575 25.0157C41.9781 23.718 42.0969 22.6042 42.6137 21.6742C43.1354 20.7431 43.9455 20.1593 45.0439 19.9229C45.6077 19.8015 46.0615 19.7954 46.4054 19.9044L47.199 20.2599C46.8265 18.1991 46.6101 16.804 46.5497 16.0745C46.5198 15.6283 46.6943 15.3644 47.0734 15.2828C47.5157 15.1876 47.7876 15.3757 47.8891 15.8472C48.0345 16.5228 48.2585 18.0358 48.5611 20.3862ZM45.365 21.2726C44.5484 21.4484 43.9884 21.8232 43.6847 22.3971C43.38 22.9662 43.3323 23.7367 43.5416 24.7088C43.6766 25.3358 44.0138 25.8276 44.5534 26.1844C45.0979 26.5402 45.669 26.6537 46.2668 26.525C46.6751 26.4371 47.0039 26.2875 47.2534 26.0762C47.3998 25.9531 47.6261 25.6933 47.9324 25.2969C47.9917 25.218 48.0459 25.1275 48.0951 25.0253L47.8018 23.7688L47.627 22.9216L47.4564 22.0582C47.1869 21.7042 46.8782 21.463 46.5302 21.3345C46.1811 21.2012 45.7927 21.1805 45.365 21.2726ZM65.8608 24.031C65.4623 24.1168 65.1835 23.9556 65.0244 23.5474C64.8218 23.0316 64.5722 22.2971 64.2754 21.3439L63.541 19.1372C63.4202 18.8123 63.267 18.502 63.0813 18.2064C62.8219 17.8045 62.595 17.6245 62.4006 17.6664C62.2207 17.7051 61.9183 17.9304 61.4934 18.3423C61.0875 18.7246 60.8299 19.0165 60.7207 19.218C60.8142 19.6759 60.9247 20.1302 61.0522 20.5807L61.69 22.4802C61.9476 23.2282 62.1303 23.8526 62.2381 24.3532C62.2841 24.567 62.2537 24.7566 62.147 24.922C62.0461 25.0912 61.8911 25.1983 61.6821 25.2433C61.4732 25.2883 61.2854 25.255 61.119 25.1433C60.9585 25.0355 60.8552 24.8746 60.8092 24.6608C60.6826 24.0727 60.4351 23.2182 60.0666 22.0973C59.702 20.9706 59.4564 20.1131 59.3298 19.525C59.2189 19.0099 59.0597 18.6246 58.8522 18.3692C58.5454 18.598 58.2548 18.925 57.9801 19.3503L57.327 20.4978C57.2744 20.6312 57.1834 20.811 57.0541 21.0371C57.1169 21.3287 57.1827 21.7646 57.2517 22.3448C57.3206 22.9249 57.3844 23.3511 57.443 23.6233C57.4744 23.7691 57.5402 23.9685 57.6405 24.2216C57.7456 24.4735 57.8107 24.6579 57.8358 24.7745C57.8787 24.9738 57.8394 25.1577 57.7181 25.3262C57.6015 25.4937 57.4437 25.5989 57.2444 25.6418C56.6952 25.76 56.2861 25.1946 56.0172 23.9455C55.9545 23.6539 55.8875 23.2131 55.8165 22.6232C55.7455 22.0333 55.6786 21.5926 55.6158 21.301C55.5603 21.0434 55.4528 20.6622 55.2933 20.1575C55.1387 19.6517 55.0331 19.2676 54.9766 19.0052C54.7391 17.9019 54.8682 17.2969 55.364 17.1902C55.5535 17.1494 55.7439 17.1949 55.935 17.3266C56.1309 17.4573 56.2498 17.6199 56.2917 17.8143C56.3116 17.9067 56.3303 18.0527 56.3478 18.2523C56.3654 18.4519 56.3851 18.6028 56.4071 18.7049L56.5865 19.4672C56.7273 18.8928 56.9981 18.3437 57.399 17.82C57.7989 17.2915 58.1713 16.9901 58.5164 16.9158C59.2795 16.7516 59.886 17.0177 60.336 17.7142C60.5269 17.3018 60.7882 16.9684 61.1199 16.7139C61.4506 16.4546 61.8541 16.2736 62.3304 16.1711C63.1421 15.9964 63.7903 16.3145 64.2751 17.1255C64.3711 17.288 64.6177 17.9494 65.015 19.1098C65.331 19.9165 65.8058 21.2713 66.4392 23.1742C66.4956 23.3655 66.4656 23.5448 66.3491 23.7123C66.2325 23.8798 66.0698 23.986 65.8608 24.031ZM70.9045 22.7622C70.088 22.9379 69.3208 22.7878 68.603 22.3117C67.8025 21.7822 67.2633 20.9549 66.9855 19.8298C66.7199 18.7377 66.7887 17.7109 67.192 16.7493C67.66 15.6162 68.5016 14.9189 69.7167 14.6573C70.6887 14.4481 71.5208 14.7343 72.2128 15.5159C72.7662 16.1495 73.1445 16.9733 73.3475 17.9873C73.5652 19.0695 73.4816 20.0512 73.0966 20.9324C72.6607 21.9315 71.93 22.5414 70.9045 22.7622ZM69.9405 16.1577C69.225 16.3066 68.7417 16.7666 68.4907 17.5377C68.293 18.1549 68.27 18.8159 68.4217 19.5207C68.5734 20.2254 68.8836 20.7333 69.3524 21.0443C69.7432 21.3009 70.1549 21.3826 70.5875 21.2895C71.093 21.1807 71.4882 20.9024 71.7732 20.4545C72.0984 19.9573 72.1984 19.3586 72.0731 18.6583C71.7362 16.7628 71.0254 15.9292 69.9405 16.1577ZM78.7636 21.0703C77.947 21.2461 77.1799 21.096 76.462 20.6199C75.6615 20.0904 75.1224 19.2631 74.8445 18.138C74.5789 17.0459 74.6478 16.019 75.051 15.0575C75.5191 13.9244 76.3606 13.2271 77.5757 12.9655C78.5477 12.7563 79.3798 13.0425 80.0719 13.8241C80.6253 14.4577 81.0035 15.2815 81.2065 16.2955C81.4242 17.3776 81.3406 18.3593 80.9556 19.2406C80.5198 20.2397 79.7891 20.8496 78.7636 21.0703ZM77.7995 14.4659C77.084 14.6148 76.6007 15.0748 76.3497 15.8459C76.152 16.4631 76.129 17.1241 76.2808 17.8288C76.4325 18.5336 76.7427 19.0415 77.2114 19.3525C77.6023 19.6091 78.014 19.6908 78.4465 19.5977C78.952 19.4889 79.3472 19.2105 79.6322 18.7627C79.9575 18.2655 80.0574 17.6668 79.9321 16.9665C79.5953 15.071 78.8844 14.2374 77.7995 14.4659ZM89.1248 11.6541C89.2202 12.3811 89.3449 13.1018 89.4987 13.8163C89.8471 15.4348 90.1855 16.6409 90.5141 17.4347C90.5385 17.5007 90.5553 17.5555 90.5648 17.5993C90.6066 17.7937 90.5731 17.9687 90.4642 18.1244C90.3553 18.28 90.211 18.3772 90.0311 18.4159C89.7298 18.4808 89.4616 18.3097 89.2265 17.9026C88.932 18.2355 88.6093 18.5084 88.2585 18.7212C87.9125 18.933 87.5353 19.0829 87.1271 19.1708C86.121 19.3873 85.2153 19.2314 84.4099 18.703C83.582 18.1642 83.0524 17.3577 82.8211 16.2836C82.5418 14.9859 82.6605 13.872 83.1774 12.942C83.6991 12.0109 84.5091 11.4272 85.6076 11.1907C86.1713 11.0694 86.6252 11.0632 86.969 11.1723L87.7626 11.5278C87.3902 9.46696 87.1738 8.07181 87.1134 7.34234C87.0834 6.89617 87.258 6.63229 87.6371 6.55068C88.0794 6.45547 88.3513 6.64359 88.4528 7.11503C88.5982 7.79061 88.8222 9.30363 89.1248 11.6541ZM85.9286 12.5405C85.1121 12.7162 84.552 13.0911 84.2484 13.665C83.9437 14.234 83.896 15.0046 84.1053 15.9766C84.2402 16.6036 84.5775 17.0955 85.1171 17.4523C85.6615 17.808 86.2327 17.9216 86.8305 17.7929C87.2387 17.705 87.5676 17.5554 87.8171 17.344C87.9635 17.221 88.1898 16.9612 88.496 16.5647C88.5553 16.4858 88.6096 16.3953 88.6588 16.2932L88.3654 15.0367L88.1907 14.1894L88.02 13.326C87.7506 12.9721 87.4419 12.7309 87.0938 12.6024C86.7447 12.469 86.3563 12.4484 85.9286 12.5405ZM97.7693 3.97285C98.0366 3.9153 98.393 4.0115 98.8384 4.26143C98.977 4.33839 99.3024 4.55059 99.8145 4.89803L101.233 5.88943C101.396 6.00699 101.493 6.1411 101.526 6.29177C101.564 6.4716 101.53 6.64421 101.424 6.80959C101.316 6.97011 101.174 7.0692 100.999 7.10687C100.839 7.1414 100.671 7.10388 100.495 6.99432C100.012 6.6406 99.2657 6.14007 98.2567 5.49274C97.3476 7.27003 96.7181 8.19634 96.3681 8.27167C96.1931 8.30934 96.023 8.27478 95.8576 8.16799C95.6971 8.06015 95.598 7.91874 95.5603 7.74378C95.5237 7.57367 95.5655 7.40192 95.6859 7.22854C95.8967 6.90854 96.4591 5.93056 97.3733 4.29458C97.472 4.11567 97.6041 4.00842 97.7693 3.97285ZM106.79 15.2964C106.537 15.3508 106.305 15.3094 106.092 15.1721C105.879 15.0348 105.746 14.8398 105.691 14.587C105.638 14.3392 105.68 14.1089 105.817 13.8963C105.954 13.6788 106.148 13.5428 106.401 13.4884C106.649 13.4351 106.88 13.4795 107.093 13.6216C107.311 13.7579 107.446 13.9499 107.499 14.1978C107.554 14.4505 107.51 14.6838 107.368 14.8974C107.231 15.1101 107.038 15.2431 106.79 15.2964ZM110.163 1.30487C110.43 1.24732 110.787 1.34352 111.232 1.59345C111.371 1.67041 111.696 1.88261 112.208 2.23005L113.627 3.22145C113.789 3.33901 113.887 3.47312 113.919 3.62379C113.958 3.80362 113.924 3.97622 113.817 4.14161C113.709 4.30213 113.568 4.40122 113.393 4.43889C113.233 4.47342 113.064 4.4359 112.888 4.32634C112.405 3.97262 111.659 3.47209 110.65 2.82476C109.741 4.60205 109.112 5.52836 108.762 5.60369C108.587 5.64136 108.417 5.6068 108.251 5.5C108.091 5.39217 107.992 5.25076 107.954 5.07579C107.917 4.90568 107.959 4.73394 108.08 4.56056C108.29 4.24056 108.853 3.26257 109.767 1.6266C109.866 1.44769 109.998 1.34044 110.163 1.30487Z" fill="#100022"/>
<g clip-path="url(#clip0_0_1)">
<path d="M55.0362 37.6403C42.8194 60.5002 5.43785 62.9065 5.43785 62.9065C5.43785 62.9065 10.4939 71.3022 21.0502 74.8969" stroke="#100022" stroke-width="2.17587" stroke-miterlimit="10" stroke-linecap="round" stroke-linejoin="round"/>
<path d="M5.43695 62.9056C5.43695 62.9056 4.68771 57.0494 15.3191 50.9166" stroke="#100022" stroke-width="2.17587" stroke-miterlimit="10" stroke-linecap="round" stroke-linejoin="round"/>
</g>
<defs>
<clipPath id="clip0_0_1">
<rect width="27.2057" height="58.034" fill="white" transform="matrix(-0.681918 -0.731429 -0.731429 0.681918 61 41)"/>
</clipPath>
</defs>
</svg>
