<svg width="65" height="49" viewBox="0 0 65 49" fill="none" xmlns="http://www.w3.org/2000/svg">
<path d="M14.0516 24.0801C13.7892 24.1366 13.5436 24.047 13.3149 23.8115C13.1189 23.6096 12.9039 23.249 12.6701 22.7298L12.1377 21.5323C11.771 20.7976 11.0858 19.1499 10.082 16.5893L9.57024 21.2993L9.4383 22.7771C9.38156 23.3639 9.29608 23.8528 9.18186 24.2435C9.05724 24.6568 8.8224 24.9006 8.47732 24.9749C8.19057 25.0366 7.93108 24.9298 7.69887 24.6543C7.548 24.4732 7.39482 24.2341 7.23933 23.937L6.85371 23.1733C5.99349 21.5633 5.16544 19.8192 4.36955 17.9411L4.38802 19.3026L4.27621 23.3543C4.33463 23.8147 4.35698 24.5092 4.34327 25.4377C4.27907 25.8481 4.0793 26.0895 3.74394 26.1617C3.50579 26.2129 3.29793 26.1687 3.12036 26.0289C2.96747 25.9093 2.868 25.7425 2.82197 25.5287C2.64724 24.717 2.60043 23.6846 2.68155 22.4313L2.85102 19.3207L2.7795 16.9332C2.76213 15.813 2.83694 15.0621 3.00395 14.6803C3.13768 14.3566 3.34792 14.1638 3.63467 14.1021C3.95059 14.0341 4.22502 14.1632 4.45797 14.4894C4.74064 14.8811 5.13467 15.7193 5.64006 17.0039C6.24187 18.5475 7.01532 20.1914 7.96038 21.9357C8.27689 19.9097 8.47945 17.8268 8.56806 15.6871L8.55764 14.5756C8.55305 14.1291 8.59298 13.7594 8.67743 13.4666C8.78956 13.0661 9.01087 12.8303 9.34137 12.7592C9.75935 12.6692 10.1645 13.0041 10.5569 13.7638C10.6943 14.0241 10.9126 14.5772 11.2116 15.4231C11.9713 17.5582 12.7324 19.3574 13.4949 20.8206L14.1221 21.9976C14.4511 22.6286 14.6324 23.0218 14.6659 23.1774C14.7109 23.3864 14.6684 23.5786 14.5383 23.7541C14.4131 23.9285 14.2509 24.0372 14.0516 24.0801ZM22.0662 22.2251C21.9739 22.2449 21.7832 22.1741 21.4941 22.0126C21.2325 21.8604 21.0315 21.718 20.8911 21.5855C20.4789 21.9387 20.1091 22.2167 19.7815 22.4194C19.4549 22.627 19.1726 22.7564 18.9344 22.8077C17.7971 23.0525 16.8994 22.9102 16.2412 22.3806C15.6206 21.8836 15.1764 21.0129 14.9085 19.7687C14.6553 18.5925 14.8422 17.4996 15.469 16.49C16.1007 15.4793 16.9779 14.8531 18.1006 14.6114C18.5235 14.5204 19.0209 14.5277 19.5929 14.6334C20.3125 14.7633 20.7136 15.0203 20.7962 15.4042C20.8245 15.5354 20.801 15.6625 20.7258 15.7855C20.7169 15.9807 20.7434 16.2928 20.8053 16.7219C20.872 17.15 20.9741 17.6951 21.1115 18.3571C21.2364 18.9608 21.3802 19.4282 21.5431 19.7593C21.6377 19.9627 21.8829 20.3575 22.2786 20.9436C22.3314 21.0237 22.415 21.1405 22.5294 21.2939L22.5998 21.4084C22.6417 21.6028 22.6082 21.7778 22.4993 21.9335C22.3904 22.0892 22.2461 22.1864 22.0662 22.2251ZM19.4591 17.4847C19.4141 17.2757 19.3776 17.0471 19.3496 16.7988C19.3254 16.5447 19.3102 16.2733 19.304 15.9848C19.1043 15.9312 18.9342 15.8966 18.7935 15.8811C18.6577 15.8646 18.551 15.8647 18.4732 15.8814C17.7198 16.0436 17.135 16.4924 16.7187 17.2279C16.3062 17.9575 16.1862 18.7232 16.3589 19.5252C16.5304 20.3222 16.8001 20.8897 17.1678 21.2276C17.5355 21.5654 18.0012 21.6737 18.565 21.5523C19.0316 21.4519 19.4094 21.2815 19.6984 21.0413C19.8535 20.9113 20.0592 20.6738 20.3154 20.3287C19.8827 19.0743 19.5972 18.1262 19.4591 17.4847ZM23.3148 11.7955C23.0815 11.8457 22.862 11.8065 22.6563 11.6779C22.4506 11.5493 22.3227 11.3683 22.2725 11.135C22.2222 10.9017 22.2644 10.6841 22.3989 10.4823C22.5335 10.2804 22.7174 10.1543 22.9507 10.1041C23.184 10.0539 23.401 10.0936 23.6019 10.2233C23.8075 10.3519 23.9355 10.5329 23.9857 10.7662C24.0359 10.9995 23.9938 11.2171 23.8592 11.4189C23.7296 11.6198 23.5481 11.7453 23.3148 11.7955ZM24.9172 17.6447C24.98 17.9363 25.0814 18.3721 25.2216 18.9522C25.3655 19.5264 25.4689 19.9593 25.5317 20.2509C25.5777 20.4648 25.5497 20.6539 25.4478 20.8182C25.3459 20.9825 25.188 21.0877 24.9741 21.1338C24.7651 21.1787 24.578 21.1478 24.4126 21.0411C24.2521 20.9332 24.1488 20.7724 24.1027 20.5585C24.04 20.2669 23.9366 19.834 23.7927 19.2598C23.6525 18.6797 23.5511 18.2439 23.4883 17.9523C23.3899 17.4954 23.2918 16.9215 23.194 16.2306C23.095 15.5349 22.9964 14.9586 22.898 14.5017C22.851 14.283 22.8784 14.0915 22.9803 13.9271C23.0871 13.7617 23.245 13.6565 23.454 13.6116C23.663 13.5666 23.8477 13.598 24.0083 13.7058C24.1736 13.8126 24.2799 13.9754 24.327 14.1941C24.4253 14.6509 24.5239 15.2273 24.6229 15.923C24.7207 16.6139 24.8189 17.1878 24.9172 17.6447ZM33.797 19.7379C33.379 19.8279 33.0941 19.6502 32.9423 19.2049L32.3945 17.6522C32.204 17.0982 32.0554 16.5733 31.9487 16.0776C31.9194 15.9415 31.877 15.7091 31.8215 15.3803C31.7708 15.0505 31.7309 14.8175 31.7016 14.6814C31.4756 13.6316 31.1682 13.1486 30.7793 13.2323C30.235 13.3494 29.7845 13.7846 29.4279 14.5377C29.1074 15.2221 28.9175 16.041 28.8584 16.9946C28.8894 17.1862 28.9188 17.4291 28.9465 17.7232C28.9697 17.9725 29.0059 18.2113 29.055 18.4397C29.0864 18.5856 29.1481 18.8011 29.24 19.0865C29.332 19.3718 29.3936 19.5874 29.425 19.7332C29.4721 19.9519 29.4422 20.1439 29.3354 20.3093C29.2335 20.4737 29.0781 20.5783 28.8691 20.6233C28.6552 20.6693 28.468 20.6384 28.3075 20.5306C28.147 20.4228 28.0432 20.2595 27.9961 20.0408C27.9647 19.895 27.9006 19.6799 27.8038 19.3956C27.7119 19.1103 27.6502 18.8947 27.6188 18.7489C27.5111 18.2483 27.396 17.5484 27.2736 16.6492C27.1551 15.7441 27.0419 15.0412 26.9341 14.5406C26.9006 14.3851 26.8412 14.1563 26.7559 13.8543C26.6754 13.5512 26.6184 13.3219 26.5849 13.1664C26.5399 12.9574 26.5713 12.7727 26.6792 12.6121C26.7908 12.4457 26.9487 12.3405 27.1529 12.2966C27.6 12.2003 27.9134 12.4634 28.0932 13.0858L28.2987 13.9341C28.8809 12.6696 29.6021 11.9448 30.4623 11.7596C31.24 11.5922 31.8556 11.8182 32.3094 12.4376C32.6167 12.8494 32.8764 13.5004 33.0883 14.3905L33.2468 15.1269L33.3855 15.8064C33.4723 16.2098 33.6358 16.7213 33.876 17.3409C34.12 17.9546 34.2849 18.4607 34.3707 18.8592C34.4167 19.0731 34.3834 19.2608 34.2707 19.4224C34.1639 19.5877 34.006 19.6929 33.797 19.7379ZM46.074 17.0951C45.656 17.185 45.3711 17.0073 45.2193 16.562L44.6715 15.0093C44.481 14.4553 44.3324 13.9305 44.2257 13.4347C44.1964 13.2986 44.154 13.0662 44.0985 12.7374C44.0478 12.4076 44.0079 12.1746 43.9786 12.0386C43.7526 10.9887 43.4452 10.5057 43.0563 10.5894C42.512 10.7066 42.0615 11.1417 41.7049 11.8949C41.3844 12.5792 41.1945 13.3982 41.1354 14.3517C41.1664 14.5434 41.1958 14.7862 41.2235 15.0803C41.2467 15.3296 41.2829 15.5684 41.332 15.7969C41.3634 15.9427 41.4251 16.1583 41.517 16.4436C41.609 16.7289 41.6706 16.9445 41.702 17.0903C41.7491 17.309 41.7192 17.5011 41.6124 17.6665C41.5105 17.8308 41.3551 17.9355 41.1461 17.9804C40.9322 18.0265 40.745 17.9956 40.5845 17.8877C40.424 17.7799 40.3202 17.6166 40.2731 17.3979C40.2417 17.2521 40.1776 17.0371 40.0808 16.7528C39.9889 16.4674 39.9272 16.2519 39.8958 16.106C39.7881 15.6054 39.673 14.9055 39.5506 14.0063C39.4321 13.1012 39.3189 12.3983 39.2111 11.8977C39.1776 11.7422 39.1182 11.5134 39.0329 11.2114C38.9524 10.9084 38.8954 10.6791 38.8619 10.5235C38.8169 10.3146 38.8483 10.1298 38.9562 9.96927C39.0678 9.80284 39.2257 9.69766 39.4299 9.65371C39.877 9.55746 40.1904 9.82054 40.3702 10.443L40.5757 11.2912C41.1579 10.0268 41.8791 9.30192 42.7393 9.11673C43.517 8.94933 44.1326 9.17532 44.5864 9.7947C44.8937 10.2066 45.1534 10.8576 45.3653 11.7477L45.5238 12.484L45.6625 13.1636C45.7493 13.567 45.9128 14.0785 46.153 14.698C46.397 15.3117 46.5619 15.8178 46.6477 16.2164C46.6937 16.4302 46.6604 16.6179 46.5477 16.7795C46.4409 16.9449 46.283 17.0501 46.074 17.0951ZM50.8787 4.79386C49.7025 5.04705 49.2197 6.00535 49.4303 7.66873L49.5058 8.12544C50.3194 7.88926 50.8478 7.745 51.0908 7.69269C51.8636 7.52633 52.3023 7.68617 52.4069 8.17219C52.4833 8.52699 52.3393 8.77922 51.9748 8.92887C51.8158 8.99361 51.624 9.04761 51.3994 9.09087C51.1786 9.12824 50.6265 9.28015 49.743 9.54661L50.0425 11.2214C50.1074 11.5227 50.2144 11.9726 50.3636 12.5711C50.5128 13.1696 50.6193 13.6171 50.6831 13.9135C50.8819 14.837 50.9833 15.5678 50.9873 16.106C50.9883 16.5126 50.8042 16.7557 50.4348 16.8352C50.2355 16.8781 50.0513 16.8491 49.8821 16.7482C49.714 16.6522 49.609 16.507 49.5671 16.3126C49.5587 16.2737 49.5531 16.224 49.5503 16.1636C49.5163 15.5098 49.4193 14.8111 49.2593 14.0675L48.8089 12.0819L48.3538 9.96772C47.7567 10.1471 47.378 10.2541 47.2176 10.2886C46.7267 10.3943 46.4306 10.2114 46.3291 9.73993C46.2255 9.25877 46.5964 8.91449 47.4417 8.70709L48.1368 8.53456C48.0928 8.25924 48.0498 7.88202 48.0076 7.40288C47.9017 6.2967 48.0028 5.44346 48.311 4.84315C48.6836 4.11709 49.4069 3.63844 50.481 3.40722C51.176 3.2576 51.5743 3.41851 51.6758 3.88996C51.7762 4.35654 51.5105 4.65784 50.8787 4.79386ZM59.3228 7.20212C59.2208 7.22409 59.0982 7.24539 58.9552 7.26601C58.817 7.28558 58.6969 7.30636 58.5948 7.32833C58.483 7.35239 58.1604 7.45999 57.6269 7.65112L58.6929 11.9299L58.7692 12.2491L58.8566 12.6194C59.1052 13.6796 58.9646 14.2667 58.4348 14.3807C58.2404 14.4226 58.0567 14.396 57.8837 14.3011C57.7155 14.205 57.611 14.0622 57.5702 13.8727C57.5305 13.688 57.4781 13.4094 57.4132 13.0369C57.3482 12.6644 57.2959 12.3858 57.2561 12.2011L56.1938 7.97488C55.8359 8.03667 55.2875 8.1115 54.5487 8.19935C54.1035 8.23414 53.8355 8.04012 53.7444 7.61728C53.6984 7.40342 53.7258 7.2119 53.8267 7.0427C53.9276 6.87351 54.0801 6.76694 54.2842 6.72299L55.8419 6.51736C55.7885 6.26948 55.7052 5.9416 55.592 5.53371C55.4826 5.11992 55.408 4.82067 55.3682 4.63598C55.3243 4.43185 55.3587 4.249 55.4714 4.08743C55.583 3.92101 55.7409 3.81582 55.9451 3.77188C56.3825 3.67771 56.7145 3.98001 56.9412 4.67877C56.9945 4.85547 57.0484 5.07018 57.1028 5.32291L57.1792 5.74889L57.2692 6.20246C57.8552 5.99496 58.1919 5.8818 58.2794 5.86296C58.7848 5.75415 59.1206 5.70731 59.2866 5.72243C59.604 5.75581 59.8014 5.95233 59.8788 6.31199C59.9248 6.52584 59.895 6.71789 59.7892 6.88813C59.6873 7.05247 59.5318 7.15713 59.3228 7.20212ZM61.8458 1.59387L63.5925 9.70806C63.6856 10.1406 63.5159 10.4035 63.0833 10.4966C62.6508 10.5897 62.3879 10.42 62.2948 9.98742C62.2519 9.78815 62.1808 9.49324 62.0815 9.1027C61.986 8.70625 61.9173 8.41082 61.8754 8.21641C61.7237 7.51167 61.5015 6.45595 61.2089 5.04925C60.9201 3.63664 60.6998 2.57796 60.5481 1.87323C60.455 1.44066 60.6247 1.17782 61.0572 1.0847C61.4898 0.991587 61.7526 1.16131 61.8458 1.59387ZM64.1962 12.4768C64.2338 12.6518 64.1958 12.8176 64.082 12.9744C63.9742 13.1349 63.8328 13.234 63.6578 13.2716C63.4634 13.3135 63.2418 13.229 62.993 13.0181C62.7522 12.8207 62.6103 12.6224 62.5674 12.4232C62.5298 12.2482 62.5654 12.0829 62.6743 11.9272C62.788 11.7705 62.9348 11.6728 63.1146 11.6341C63.3042 11.5933 63.5258 11.6778 63.7795 11.8876C64.0154 12.086 64.1543 12.2824 64.1962 12.4768Z" fill="#100022"/>
<path d="M34.919 29.7136C32.452 38.1653 39.4303 48.1535 39.4303 48.1535C39.4303 48.1535 36.6106 48.8521 33.7207 47.036" stroke="#100022" stroke-miterlimit="10" stroke-linecap="round" stroke-linejoin="round"/>
</svg>
