<svg width="64" height="64" viewBox="0 0 64 64" fill="none" xmlns="http://www.w3.org/2000/svg">
<path d="M64 32C64 49.6729 49.6729 64 32 64C14.3271 64 0 49.6729 0 32C0 14.3271 14.3271 0 32 0C49.6729 0 64 14.3271 64 32Z" fill="#FFCC4D"/>
<path d="M32.0002 38.8423C26.7273 38.8423 23.2269 38.2272 18.8998 37.3863C17.9096 37.1979 15.9878 37.3863 15.9878 40.2983C15.9878 46.1205 22.6776 53.3988 32.0002 53.3988C41.3229 53.3988 48.0127 46.1205 48.0127 40.2983C48.0127 37.3863 46.0891 37.1961 45.1007 37.3863C40.7736 38.2272 37.2749 38.8423 32.0002 38.8423Z" fill="#664500"/>
<path d="M29.6004 5.83269C28.0732 1.51091 23.3355 -0.757535 19.0119 0.766021C16.3879 1.69047 14.5301 3.8078 13.8066 6.28424C11.6892 4.81047 8.91591 4.32869 6.29546 5.25313C1.97546 6.77847 -0.296537 11.5198 1.23057 15.8416C1.44746 16.4531 1.73546 17.0202 2.06969 17.5447C5.53813 23.9127 15.5595 28.3891 21.627 28.4442C26.315 24.5918 31.3088 14.8176 30.0146 7.68513C29.947 7.06647 29.8137 6.44424 29.6004 5.83269ZM34.4004 5.83269C35.9275 1.51091 40.667 -0.757535 44.9888 0.766021C47.6128 1.69047 49.4706 3.8078 50.1959 6.28424C52.3132 4.81047 55.0866 4.32869 57.707 5.25313C62.027 6.77847 64.2972 11.5198 62.7737 15.8416C62.555 16.4531 62.2688 17.0202 61.9328 17.5447C58.4644 23.9127 48.443 28.3891 42.3737 28.4442C37.6857 24.5918 32.6937 14.8176 33.9879 7.68513C34.0537 7.06647 34.187 6.44424 34.4004 5.83269Z" fill="#DD2E44"/>
</svg>
